<svg width="156" height="156" viewBox="0 0 156 156" fill="none" xmlns="http://www.w3.org/2000/svg">
<path d="M78.0001 93.6L77.3439 94.3546C77.7202 94.6818 78.28 94.6818 78.6563 94.3546L78.0001 93.6ZM43.1733 93.8622C43.7046 93.7113 44.0129 93.1583 43.8621 92.627C43.7112 92.0957 43.1582 91.7874 42.6269 91.9382L43.1733 93.8622ZM113.373 91.9382C112.842 91.7874 112.289 92.0957 112.138 92.627C111.987 93.1583 112.296 93.7113 112.827 93.8622L113.373 91.9382ZM108.2 46.1217C108.2 50.9706 106.335 56.3099 103.446 61.6485C100.564 66.9737 96.7086 72.2159 92.833 76.8497C88.9602 81.4802 85.0846 85.4826 82.1758 88.3281C80.722 89.7502 79.5113 90.882 78.6652 91.6571C78.2422 92.0447 77.9104 92.343 77.6851 92.5438C77.5725 92.6442 77.4864 92.7202 77.4289 92.7708C77.4002 92.7961 77.3786 92.8151 77.3643 92.8276C77.3572 92.8338 77.3519 92.8384 77.3485 92.8414C77.3468 92.8429 77.3456 92.8439 77.3448 92.8446C77.3444 92.8449 77.3442 92.8451 77.344 92.8453C77.3439 92.8454 77.3439 92.8454 78.0001 93.6C78.6563 94.3546 78.6565 94.3544 78.6569 94.354C78.6572 94.3538 78.6577 94.3534 78.6583 94.3529C78.6594 94.3519 78.661 94.3505 78.6631 94.3487C78.6672 94.3451 78.6732 94.3398 78.6811 94.3329C78.6969 94.3191 78.72 94.2989 78.7503 94.2722C78.8108 94.2189 78.9 94.1401 79.0159 94.0368C79.2476 93.8303 79.5861 93.5259 80.0162 93.1318C80.8764 92.3438 82.1032 91.197 83.5744 89.7577C86.5156 86.8804 90.44 82.8284 94.3672 78.1328C98.2916 73.4406 102.236 68.0849 105.205 62.6004C108.165 57.1292 110.2 51.4467 110.2 46.1217H108.2ZM78.0001 93.6C78.6563 92.8454 78.6563 92.8454 78.6562 92.8453C78.656 92.8451 78.6558 92.8449 78.6554 92.8446C78.6546 92.8439 78.6534 92.8429 78.6517 92.8414C78.6483 92.8384 78.643 92.8338 78.6359 92.8276C78.6216 92.8151 78.6 92.7961 78.5713 92.7708C78.5138 92.7202 78.4277 92.6442 78.3151 92.5438C78.0898 92.343 77.758 92.0447 77.335 91.6571C76.4889 90.882 75.2782 89.7502 73.8244 88.3281C70.9156 85.4826 67.04 81.4802 63.1672 76.8497C59.2916 72.2159 55.4365 66.9737 52.5546 61.6485C49.6654 56.3099 47.8001 50.9706 47.8001 46.1217H45.8001C45.8001 51.4467 47.8348 57.1292 50.7956 62.6004C53.7637 68.0849 57.7086 73.4406 61.633 78.1328C65.5602 82.8284 69.4846 86.8804 72.4258 89.7577C73.897 91.197 75.1238 92.3438 75.984 93.1318C76.4141 93.5259 76.7526 93.8303 76.9843 94.0368C77.1002 94.1401 77.1894 94.2189 77.2499 94.2722C77.2802 94.2989 77.3033 94.3191 77.3191 94.3329C77.327 94.3398 77.333 94.3451 77.3371 94.3487C77.3392 94.3505 77.3408 94.3519 77.3419 94.3529C77.3425 94.3534 77.343 94.3538 77.3433 94.354C77.3437 94.3544 77.3439 94.3546 78.0001 93.6ZM47.8001 46.1217C47.8001 29.8379 61.3003 16.6 78.0001 16.6V14.6C60.2374 14.6 45.8001 28.6921 45.8001 46.1217H47.8001ZM78.0001 16.6C94.6999 16.6 108.2 29.8379 108.2 46.1217H110.2C110.2 28.6921 95.7628 14.6 78.0001 14.6V16.6ZM139.4 114.4C139.4 117.641 137.828 120.82 134.795 123.808C131.758 126.799 127.313 129.539 121.739 131.862C110.596 136.505 95.1323 139.4 78.0001 139.4V141.4C95.3304 141.4 111.067 138.475 122.508 133.708C128.227 131.325 132.92 128.463 136.198 125.233C139.48 121.999 141.4 118.338 141.4 114.4H139.4ZM78.0001 139.4C60.8678 139.4 45.4044 136.505 34.2612 131.862C28.6875 129.539 24.2422 126.799 21.2056 123.808C18.1725 120.82 16.6001 117.641 16.6001 114.4H14.6001C14.6001 118.338 16.5199 121.999 19.802 125.233C23.0806 128.463 27.7736 131.325 33.492 133.708C44.9332 138.475 60.6698 141.4 78.0001 141.4V139.4ZM16.6001 114.4C16.6001 110.368 19.0401 106.423 23.6807 102.846C28.3114 99.2766 35.0066 96.1814 43.1733 93.8622L42.6269 91.9382C34.314 94.2989 27.3592 97.4854 22.4598 101.262C17.5703 105.031 14.6001 109.495 14.6001 114.4H16.6001ZM112.827 93.8622C120.994 96.1814 127.689 99.2766 132.319 102.846C136.96 106.423 139.4 110.368 139.4 114.4H141.4C141.4 109.495 138.43 105.031 133.54 101.262C128.641 97.4854 121.686 94.299 113.373 91.9382L112.827 93.8622Z" fill="black"/>
</svg>
